<svg width="42" height="20" viewBox="0 0 42 20" fill="none" xmlns="http://www.w3.org/2000/svg">
<path fill-rule="evenodd" clip-rule="evenodd" d="M8.99397 13.0361C9.59758 13.0378 10.1872 13.2141 10.6884 13.5429C11.1896 13.8717 11.5799 14.3382 11.8101 14.8836C12.0404 15.429 12.1002 16.0289 11.982 16.6074C11.8638 17.186 11.573 17.7174 11.1462 18.1346C10.7194 18.5518 10.1757 18.8361 9.58374 18.9516C8.9918 19.0671 8.37813 19.0087 7.82015 18.7836C7.26217 18.5586 6.78488 18.1771 6.4485 17.6872C6.11212 17.1973 5.93172 16.621 5.93007 16.031C5.92896 15.6374 6.00745 15.2474 6.16103 14.8836C6.31462 14.5198 6.54026 14.1892 6.82499 13.9109C7.10972 13.6326 7.44792 13.412 7.82015 13.2619C8.19238 13.1118 8.5913 13.0351 8.99397 13.0361Z" fill="#2F2F2F"/>
<path fill-rule="evenodd" clip-rule="evenodd" d="M16.3537 13.0361C16.9573 13.0378 17.5469 13.2141 18.0481 13.5429C18.5493 13.8717 18.9396 14.3382 19.1699 14.8836C19.4001 15.429 19.4599 16.0288 19.3417 16.6074C19.2236 17.186 18.9327 17.7174 18.5059 18.1346C18.0791 18.5518 17.5354 18.8361 16.9435 18.9516C16.3516 19.0671 15.7379 19.0087 15.1799 18.7836C14.6219 18.5586 14.1446 18.177 13.8082 17.6871C13.4718 17.1973 13.2915 16.6209 13.2898 16.0309C13.2905 15.2369 13.6135 14.4755 14.1879 13.914C14.7624 13.3525 15.5413 13.0368 16.3537 13.0361Z" fill="#2F2F2F"/>
<path fill-rule="evenodd" clip-rule="evenodd" d="M9.01083 11.147H16.3519C17.4758 11.1493 18.5629 11.5391 19.4218 12.2478C20.2807 12.9564 20.8564 13.9385 21.0475 15.0211H20.0481C19.8643 14.1963 19.3976 13.4577 18.7253 12.9278C18.0529 12.398 17.2155 12.1087 16.3519 12.1081H9.01083C8.14327 12.1081 7.30149 12.3964 6.62372 12.9257C5.94595 13.4551 5.47249 14.194 5.28109 15.0211H4.29907C4.49152 13.9361 5.06986 12.9524 5.93205 12.2436C6.79425 11.5347 7.88487 11.1464 9.01148 11.147H9.01083Z" fill="#2F2F2F"/>
<path fill-rule="evenodd" clip-rule="evenodd" d="M2.03164 1.81211V6.9897H2.74739C3.09142 7.01311 3.43667 6.9661 3.76106 6.85167C4.08545 6.73724 4.38186 6.55791 4.63133 6.32514C5.09968 5.7884 5.33501 5.09403 5.28713 4.39009C5.33529 3.69309 5.09955 3.00576 4.63133 2.47803C4.38186 2.24526 4.08545 2.06593 3.76106 1.9515C3.43667 1.83707 3.09142 1.79006 2.74739 1.81347L2.03164 1.81211ZM0.00244141 0.156584H2.13725C3.02888 0.122819 3.92076 0.217007 4.78445 0.436124C5.35646 0.613712 5.87054 0.935438 6.27498 1.36894C6.64243 1.75001 6.92287 2.20304 7.09773 2.69805C7.28284 3.24278 7.37158 3.81439 7.36014 4.38829C7.37138 4.9697 7.28267 5.54882 7.09773 6.10152C6.92291 6.59641 6.64246 7.04932 6.27498 7.43019C5.86936 7.86791 5.35019 8.19022 4.77245 8.363C3.91274 8.58153 3.0249 8.67571 2.13725 8.64253H0.00244141V0.156584ZM8.89818 0.156584H11.4623L13.2388 4.70298L15.0397 0.156584H17.5915V8.64342H15.6831V2.44195L13.8942 7.01179H12.6088L10.8199 2.44195V8.64388H8.90002L8.89818 0.156584ZM25.7604 8.17724C25.3951 8.37989 25.0069 8.54042 24.6037 8.6556C24.1947 8.75898 23.7736 8.8099 23.3512 8.80708C22.7787 8.83486 22.2067 8.74434 21.6725 8.54143C21.1382 8.33851 20.6537 8.02776 20.2506 7.62946C19.5165 6.71051 19.1177 5.57797 19.1177 4.41195C19.1177 3.24594 19.5165 2.11339 20.2506 1.19445C20.6513 0.792209 21.1351 0.478082 21.6697 0.272998C22.2044 0.0679144 22.7776 -0.0234151 23.3512 0.00509831C24.1965 0.00774297 25.0266 0.225271 25.7599 0.636302V2.39688C25.4233 2.14286 25.0504 1.93855 24.6531 1.79048C24.2865 1.65867 23.899 1.59151 23.5084 1.59211C23.1862 1.57926 22.8653 1.63999 22.5713 1.76951C22.2772 1.89903 22.0181 2.09377 21.8145 2.33826C21.4097 2.95583 21.1945 3.67394 21.1945 4.40744C21.1945 5.14094 21.4097 5.85906 21.8145 6.47663C22.0165 6.72301 22.2753 6.91909 22.5697 7.04879C22.8641 7.17849 23.1858 7.23812 23.5084 7.22279C23.8983 7.22726 24.2858 7.16406 24.6531 7.03613C25.0506 6.88356 25.4234 6.67552 25.7599 6.41847L25.7604 8.17724Z" fill="#2F2F2F"/>
<path fill-rule="evenodd" clip-rule="evenodd" d="M4.01501 12.9065H0.768226V15.2354H0V11.4431H5.29518C4.78576 11.8568 4.35219 12.3524 4.01308 12.9084L4.01501 12.9065ZM26.5101 11.4412V12.9386H37V13.5051L21.9316 14.2869C21.6195 13.1707 20.9624 12.176 20.05 11.4387L26.5101 11.4412Z" fill="#2F2F2F"/>
</svg>
