<svg width="47" height="47" viewBox="0 0 47 47" fill="none" xmlns="http://www.w3.org/2000/svg">
<path d="M20.5531 20.5954V19.6554H7.03122V20.116H7.49182C7.49182 19.8622 7.28502 19.6554 7.03122 19.6554V20.116H7.49182V6.59408H7.03122V7.05468C7.28502 7.05468 7.49182 6.84788 7.49182 6.59408H7.03122V7.05468H20.5531V6.59408H20.0925C20.0925 6.84788 20.2993 7.05468 20.5531 7.05468V6.59408H20.0925V20.116H20.5531V19.6554C20.2993 19.6554 20.0925 19.8622 20.0925 20.116H20.5531V19.6554V21.5354C21.338 21.5354 21.9725 20.9009 21.9725 20.116V6.59408C21.9725 5.80918 21.338 5.17468 20.5531 5.17468H7.03122C6.24632 5.17468 5.61182 5.80918 5.61182 6.59408V20.116C5.61182 20.9009 6.24632 21.5354 7.03122 21.5354H20.5531V20.5954Z" fill="#2F2F2F"/>
<path d="M39.9688 40.8853V39.9453H26.4469V40.4059H26.9075C26.9075 40.1521 26.7007 39.9453 26.4469 39.9453V40.4059H26.9075V26.884H26.4469V27.3446C26.7007 27.3446 26.9075 27.1378 26.9075 26.884H26.4469V27.3446H39.9688V26.884H39.5082C39.5082 27.1378 39.715 27.3446 39.9688 27.3446V26.884H39.5082V40.4059H39.9688V39.9453C39.715 39.9453 39.5082 40.1521 39.5082 40.4059H39.9688V39.9453V41.8253C40.7537 41.8253 41.3882 41.1908 41.3882 40.4059V26.884C41.3882 26.0991 40.7537 25.4646 39.9688 25.4646H26.4469C25.662 25.4646 25.0275 26.0991 25.0275 26.884V40.4059C25.0275 41.1908 25.662 41.8253 26.4469 41.8253H39.9688V40.8853Z" fill="#2F2F2F"/>
<path d="M20.5531 40.8853V39.9453H7.03122V40.4059H7.49182C7.49182 40.1521 7.28502 39.9453 7.03122 39.9453V40.4059H7.49182V26.884H7.03122V27.3446C7.28502 27.3446 7.49182 27.1378 7.49182 26.884H7.03122V27.3446H20.5531V26.884H20.0925C20.0925 27.1378 20.2993 27.3446 20.5531 27.3446V26.884H20.0925V40.4059H20.5531V39.9453C20.2993 39.9453 20.0925 40.1521 20.0925 40.4059H20.5531V39.9453V41.8253C21.338 41.8253 21.9725 41.1908 21.9725 40.4059V26.884C21.9725 26.0991 21.338 25.4646 20.5531 25.4646H7.03122C6.24632 25.4646 5.61182 26.0991 5.61182 26.884V40.4059C5.61182 41.1908 6.24632 41.8253 7.03122 41.8253H20.5531V40.8853Z" fill="#2F2F2F"/>
<path d="M39.9688 20.5954V19.6554H26.4469V20.116H26.9075C26.9075 19.8622 26.7007 19.6554 26.4469 19.6554V20.116H26.9075V6.59408H26.4469V7.05468C26.7007 7.05468 26.9075 6.84788 26.9075 6.59408H26.4469V7.05468H39.9688V6.59408H39.5082C39.5082 6.84788 39.715 7.05468 39.9688 7.05468V6.59408H39.5082V20.116H39.9688V19.6554C39.715 19.6554 39.5082 19.8622 39.5082 20.116H39.9688V19.6554V21.5354C40.7537 21.5354 41.3882 20.9009 41.3882 20.116V6.59408C41.3882 5.80918 40.7537 5.17468 39.9688 5.17468H26.4469C25.662 5.17468 25.0275 5.80918 25.0275 6.59408V20.116C25.0275 20.9009 25.662 21.5354 26.4469 21.5354H39.9688V20.5954Z" fill="#2F2F2F"/>
</svg>