<svg width="42" height="20" viewBox="0 0 42 20" fill="none" xmlns="http://www.w3.org/2000/svg">
<g clip-path="url(#clip0_306_196)">
<path fill-rule="evenodd" clip-rule="evenodd" d="M8.99397 13.9658C9.59758 13.9675 10.1872 14.1479 10.6884 14.4843C11.1896 14.8206 11.5799 15.2979 11.8101 15.8559C12.0404 16.4139 12.1002 17.0276 11.982 17.6195C11.8638 18.2115 11.573 18.7551 11.1462 19.1819C10.7194 19.6088 10.1757 19.8996 9.58374 20.0178C8.9918 20.1359 8.37813 20.0761 7.82015 19.8459C7.26217 19.6157 6.78488 19.2253 6.4485 18.7241C6.11212 18.223 5.93172 17.6333 5.93007 17.0297C5.92896 16.6271 6.00745 16.2281 6.16103 15.8559C6.31462 15.4837 6.54026 15.1455 6.82499 14.8608C7.10972 14.576 7.44792 14.3504 7.82015 14.1968C8.19238 14.0432 8.5913 13.9647 8.99397 13.9658Z" fill="#2F2F2F"/>
<path fill-rule="evenodd" clip-rule="evenodd" d="M16.3537 13.9658C16.9573 13.9675 17.5469 14.1479 18.0481 14.4843C18.5493 14.8206 18.9396 15.2979 19.1699 15.8559C19.4001 16.4139 19.4599 17.0276 19.3417 17.6195C19.2236 18.2114 18.9327 18.7551 18.5059 19.1819C18.0791 19.6087 17.5354 19.8996 16.9435 20.0178C16.3516 20.1359 15.7379 20.0761 15.1799 19.8459C14.6219 19.6157 14.1446 19.2253 13.8082 18.7241C13.4718 18.2229 13.2915 17.6333 13.2898 17.0297C13.2905 16.2173 13.6135 15.4384 14.1879 14.864C14.7624 14.2895 15.5413 13.9665 16.3537 13.9658Z" fill="#2F2F2F"/>
<path fill-rule="evenodd" clip-rule="evenodd" d="M9.01083 12.0334H16.3519C17.4758 12.0359 18.5629 12.4347 19.4218 13.1597C20.2807 13.8846 20.8564 14.8893 21.0475 15.997H20.0481C19.8643 15.1531 19.3976 14.3975 18.7253 13.8554C18.0529 13.3133 17.2155 13.0174 16.3519 13.0168H9.01083C8.14327 13.0167 7.30149 13.3117 6.62372 13.8533C5.94595 14.3948 5.47249 15.1508 5.28109 15.997H4.29907C4.49152 14.8869 5.06986 13.8805 5.93205 13.1553C6.79425 12.4302 7.88487 12.0328 9.01148 12.0334H9.01083Z" fill="#2F2F2F"/>
<path d="M8.07439 5.50261V9.13111C7.93185 9.303 7.71175 9.48956 7.41409 9.69079C7.11643 9.88783 6.73283 10.0576 6.26328 10.2002C5.79374 10.3427 5.22567 10.414 4.55908 10.414C3.96796 10.414 3.42924 10.3175 2.94292 10.1247C2.45661 9.92766 2.03737 9.64048 1.68521 9.26317C1.33724 8.88585 1.06893 8.42469 0.880275 7.87968C0.691618 7.33048 0.59729 6.70372 0.59729 5.99941V5.42715C0.59729 4.72283 0.687426 4.09607 0.867698 3.54687C1.05216 2.99767 1.31419 2.53441 1.65377 2.1571C1.99335 1.77978 2.39791 1.4926 2.86746 1.29556C3.33701 1.09852 3.85896 1 4.43331 1C5.22986 1 5.88387 1.12996 6.39534 1.38989C6.90681 1.64563 7.2967 2.00198 7.56501 2.45895C7.83752 2.91172 8.00521 3.43158 8.0681 4.01851H6.23813C6.19201 3.70827 6.10397 3.43787 5.97401 3.20728C5.84405 2.9767 5.65748 2.79643 5.41433 2.66647C5.17536 2.5365 4.86513 2.47152 4.48362 2.47152C4.16919 2.47152 3.8883 2.5365 3.64095 2.66647C3.3978 2.79224 3.19237 2.9788 3.02467 3.22615C2.85698 3.4735 2.72911 3.77954 2.64107 4.14428C2.55303 4.50902 2.50901 4.93245 2.50901 5.41457V5.99941C2.50901 6.47734 2.55513 6.90077 2.64736 7.26969C2.73959 7.63443 2.87585 7.94257 3.05612 8.19411C3.24058 8.44146 3.46697 8.62802 3.73528 8.75379C4.00359 8.87957 4.31593 8.94245 4.67228 8.94245C4.96994 8.94245 5.21729 8.9173 5.41433 8.86699C5.61556 8.81668 5.77697 8.75589 5.89855 8.68462C6.02432 8.60916 6.12074 8.53789 6.18782 8.47081V6.84836H4.46475V5.50261H8.07439Z" fill="#2F2F2F"/>
<path d="M12.0606 8.37648L14.2176 1.13206H16.3179L13.1296 10.2882H11.7462L12.0606 8.37648ZM10.0734 1.13206L12.2241 8.37648L12.5511 10.2882H11.155L7.98559 1.13206H10.0734Z" fill="#2F2F2F"/>
<path d="M19.8956 8.83555L21.7193 1.13206H22.7381L22.9707 2.41493L21.0276 10.2882H19.9334L19.8956 8.83555ZM18.9586 1.13206L20.4679 8.83555L20.3421 10.2882H19.1221L17.0909 1.13206H18.9586ZM24.5743 8.8041L26.0647 1.13206H27.9324L25.9075 10.2882H24.6875L24.5743 8.8041ZM23.3103 1.13206L25.1466 8.86699L25.0963 10.2882H24.0021L22.0463 2.40864L22.2979 1.13206H23.3103Z" fill="#2F2F2F"/>
<path fill-rule="evenodd" clip-rule="evenodd" d="M4.01501 13.8332H0.768226V16.2158H0V12.3361H5.29518C4.78576 12.7593 4.35219 13.2663 4.01308 13.8352L4.01501 13.8332ZM26.5101 12.3341V13.8661H37V14.4456L21.9316 15.2454C21.6195 14.1035 20.9624 13.0858 20.05 12.3315L26.5101 12.3341Z" fill="#2F2F2F"/>
</g>
<defs>
<clipPath id="clip0_306_196">
<rect width="42" height="20" fill="white"/>
</clipPath>
</defs>
</svg>
