<svg width="50" height="20" viewBox="0 0 50 20" fill="none" xmlns="http://www.w3.org/2000/svg">
<path fill-rule="evenodd" clip-rule="evenodd" d="M19.2032 12.8572C21.0524 12.8572 22.546 14.3572 22.546 16.2143C22.546 18.0715 21.0524 19.5715 19.2032 19.5715C17.354 19.5715 15.8604 18.1429 15.8604 16.2857C15.8604 14.4286 17.354 12.8572 19.2032 12.8572Z" fill="#2F2F2F"/>
<path fill-rule="evenodd" clip-rule="evenodd" d="M27.3115 12.8572C29.1607 12.8572 30.6543 14.3572 30.6543 16.2143C30.6543 18.0715 29.1607 19.5715 27.3115 19.5715C25.4622 19.5715 23.9686 18.0715 23.9686 16.2143C23.9686 14.4286 25.4622 12.8572 27.3115 12.8572Z" fill="#2F2F2F"/>
<path fill-rule="evenodd" clip-rule="evenodd" d="M19.2743 10.7856H27.3113C29.8718 10.7856 32.0767 12.7142 32.5034 15.1428H31.4365C31.0098 13.2856 29.3739 11.8571 27.3825 11.8571H19.3455C17.354 11.8571 15.647 13.2856 15.2914 15.1428H14.0823C14.509 12.6428 16.6427 10.7856 19.2743 10.7856Z" fill="#2F2F2F"/>
<path fill-rule="evenodd" clip-rule="evenodd" d="M13.7267 12.7143H10.1705V15.3572H9.38818V5.85718H38.4779C38.4779 8.14289 38.4779 10.3572 38.4779 12.6429V12.7857H50V13.4286L33.4281 14.2857C32.6457 11.5715 30.1564 9.57146 27.3114 9.57146H19.2744C16.9273 9.64289 14.8647 10.8572 13.7267 12.7143Z" fill="#2F2F2F"/>
<path fill-rule="evenodd" clip-rule="evenodd" d="M0.155589 4.50361L3.5362 1.15416C3.74365 0.948616 4.07999 0.948616 4.28744 1.15416L7.66805 4.50361C7.8755 4.70915 7.8755 5.04239 7.66805 5.24793C7.4606 5.45347 7.12426 5.45347 6.91681 5.24793L4.44303 2.79696L4.44303 11L3.38061 11L3.38061 2.79695L0.906836 5.24793C0.699384 5.45347 0.36304 5.45347 0.155589 5.24793C-0.051862 5.04239 -0.0518619 4.70915 0.155589 4.50361Z" fill="#2F2F2F"/>
<path fill-rule="evenodd" clip-rule="evenodd" d="M7.66814 16.0677L4.28753 19.4171C4.08008 19.6227 3.74374 19.6227 3.53629 19.4171L0.155677 16.0677C-0.051774 15.8621 -0.0517739 15.5289 0.155677 15.3234C0.363128 15.1178 0.699473 15.1178 0.906924 15.3234L3.3807 17.7743L3.3807 9.57129L4.44312 9.57129L4.44312 17.7743L6.91689 15.3234C7.12435 15.1178 7.46069 15.1178 7.66814 15.3234C7.87559 15.5289 7.87559 15.8621 7.66814 16.0677Z" fill="#2F2F2F"/>
</svg>
