<svg width="47" height="47" viewBox="0 0 47 47" fill="none" xmlns="http://www.w3.org/2000/svg">
<path d="M42.2201 15.0494V14.1094H4.62008V14.57H5.08068C5.08068 14.3162 4.87388 14.1094 4.62008 14.1094V14.57H5.08068V6.73043H4.62008V7.19104C4.87388 7.19104 5.08068 6.98423 5.08068 6.73043H4.62008V7.19104H42.2201V6.73043H41.7595C41.7595 6.98423 41.9663 7.19104 42.2201 7.19104V6.73043H41.7595V14.57H42.2201V14.1094C41.9663 14.1094 41.7595 14.3162 41.7595 14.57H42.2201V14.1094V15.9894C43.005 15.9894 43.6395 15.3549 43.6395 14.57V6.73043C43.6395 5.94553 43.005 5.31104 42.2201 5.31104H4.62008C3.83518 5.31104 3.20068 5.94553 3.20068 6.73043V14.57C3.20068 15.3549 3.83518 15.9894 4.62008 15.9894H42.2201V15.0494Z" fill="#2F2F2F"/>
<path d="M42.2201 27.9791V27.0391H4.62008V27.4997H5.08068C5.08068 27.2459 4.87388 27.0391 4.62008 27.0391V27.4997H5.08068V19.6601H4.62008V20.1207C4.87388 20.1207 5.08068 19.9139 5.08068 19.6601H4.62008V20.1207H42.2201V19.6601H41.7595C41.7595 19.9139 41.9663 20.1207 42.2201 20.1207V19.6601H41.7595V27.4997H42.2201V27.0391C41.9663 27.0391 41.7595 27.2459 41.7595 27.4997H42.2201V27.0391V28.9191C43.005 28.9191 43.6395 28.2846 43.6395 27.4997V19.6601C43.6395 18.8752 43.005 18.2407 42.2201 18.2407H4.62008C3.83518 18.2407 3.20068 18.8752 3.20068 19.6601V27.4997C3.20068 28.2846 3.83518 28.9191 4.62008 28.9191H42.2201V27.9791Z" fill="#2F2F2F"/>
<path d="M42.2201 40.9088V39.9688H4.62008V40.4294H5.08068C5.08068 40.1756 4.87388 39.9688 4.62008 39.9688V40.4294H5.08068V32.5898H4.62008V33.0504C4.87388 33.0504 5.08068 32.8436 5.08068 32.5898H4.62008V33.0504H42.2201V32.5898H41.7595C41.7595 32.8436 41.9663 33.0504 42.2201 33.0504V32.5898H41.7595V40.4294H42.2201V39.9688C41.9663 39.9688 41.7595 40.1756 41.7595 40.4294H42.2201V39.9688V41.8488C43.005 41.8488 43.6395 41.2143 43.6395 40.4294V32.5898C43.6395 31.8049 43.005 31.1704 42.2201 31.1704H4.62008C3.83518 31.1704 3.20068 31.8049 3.20068 32.5898V40.4294C3.20068 41.2143 3.83518 41.8488 4.62008 41.8488H42.2201V40.9088Z" fill="#2F2F2F"/>
</svg>