<svg width="35" height="20" viewBox="0 0 35 20" fill="none" xmlns="http://www.w3.org/2000/svg">
<path fill-rule="evenodd" clip-rule="evenodd" d="M3.00173 6.59733L0.132209 3.68872C-0.0438793 3.51023 -0.0438793 3.22085 0.132209 3.04236L3.00173 0.133751C3.17782 -0.0447365 3.46331 -0.0447365 3.6394 0.133751C3.81549 0.312238 3.81549 0.601622 3.6394 0.780109L1.53962 2.9085L17.4404 2.9085L17.7463 3.82259L1.53962 3.82259L3.6394 5.95098C3.81549 6.12946 3.81549 6.41885 3.6394 6.59733C3.46331 6.77582 3.17782 6.77582 3.00173 6.59733Z" fill="#2F2F2F"/>
<path fill-rule="evenodd" clip-rule="evenodd" d="M22.6999 0.133866L25.5695 3.04248C25.7456 3.22097 25.7456 3.51035 25.5695 3.68884L22.6999 6.59745C22.5239 6.77594 22.2384 6.77594 22.0623 6.59745C21.8862 6.41896 21.8862 6.12958 22.0623 5.95109L24.1621 3.8227L17.1344 3.8227L17.1344 2.90861L24.1621 2.90861L22.0623 0.780225C21.8862 0.601738 21.8862 0.312353 22.0623 0.133866C22.2384 -0.0446209 22.5239 -0.0446209 22.6999 0.133866Z" fill="#2F2F2F"/>
<path d="M20.6596 8.30298H4.75476V17.3395H20.6596V8.30298Z" fill="#2F2F2F"/>
<path fill-rule="evenodd" clip-rule="evenodd" d="M4.26407 17.1973V19.0943C4.26326 19.3343 4.16751 19.5643 3.99771 19.734C3.82791 19.9037 3.59785 19.9993 3.3578 19.9999H1.48159C1.24153 19.9993 1.01148 19.9037 0.841677 19.734C0.671874 19.5643 0.576125 19.3343 0.575317 19.0943V17.1973C0.76949 17.2772 0.97729 17.3187 1.18726 17.3197H3.64907C3.85903 17.3187 4.06682 17.2771 4.26101 17.1973" fill="#2F2F2F"/>
<path fill-rule="evenodd" clip-rule="evenodd" d="M1.18839 10.8572H3.65021C3.96504 10.8583 4.26667 10.9839 4.48929 11.2065C4.71191 11.4291 4.83747 11.7307 4.8386 12.0456V15.4461C4.83747 15.7609 4.71191 16.0625 4.48929 16.2852C4.26667 16.5078 3.96504 16.6334 3.65021 16.6345H1.18839C0.873512 16.6335 0.571801 16.508 0.349145 16.2853C0.12649 16.0627 0.000968375 15.761 0 15.4461V12.0456C0.000968375 11.7307 0.12649 11.429 0.349145 11.2063C0.571801 10.9837 0.873512 10.8581 1.18839 10.8572Z" fill="#2F2F2F"/>
<path fill-rule="evenodd" clip-rule="evenodd" d="M24.8396 17.1973V19.0943C24.8388 19.3343 24.7431 19.5643 24.5733 19.734C24.4035 19.9037 24.1734 19.9993 23.9334 19.9999H22.0565C21.8165 19.9993 21.5864 19.9037 21.4166 19.734C21.2468 19.5643 21.1511 19.3343 21.1503 19.0943V17.1973C21.3445 17.2771 21.5522 17.3187 21.7622 17.3197H24.224C24.434 17.3187 24.6418 17.2771 24.836 17.1973" fill="#2F2F2F"/>
<path fill-rule="evenodd" clip-rule="evenodd" d="M21.7643 10.8572H24.2261C24.5409 10.8583 24.8425 10.9839 25.065 11.2065C25.2875 11.4292 25.4129 11.7308 25.4139 12.0456V15.4461C25.4129 15.7609 25.2875 16.0625 25.065 16.2851C24.8425 16.5078 24.5409 16.6333 24.2261 16.6345H21.7643C21.4494 16.6337 21.1476 16.5082 20.9249 16.2855C20.7022 16.0628 20.5767 15.761 20.5759 15.4461V12.0456C20.5769 11.7307 20.7024 11.429 20.9251 11.2063C21.1477 10.9837 21.4494 10.8581 21.7643 10.8572Z" fill="#2F2F2F"/>
</svg>
