<?xml version="1.0" encoding="UTF-8"?>
<svg id="Warstwa_1" data-name="Warstwa 1" xmlns="http://www.w3.org/2000/svg" viewBox="0 0 102.2 90.38">
  <defs>
    <style>
      .cls-1 {
        fill: #fff;
      }
    </style>
  </defs>
  <path class="cls-1" d="m72.49,20.8c-.66-.33-1.54-.57-2.73-.57h-16.37l-4.49,12.6h17.47c1.72,0,3.26-.5,4.53-1.41s2.25-2.24,2.85-3.9l.33-.94c.21-.59.34-1.12.4-1.6.18-1.44-.21-2.41-.64-3.02-.27-.39-.7-.83-1.36-1.16h.01Z"/>
  <path class="cls-1" d="m63.76,45.13h-19.26l-4.49,12.59h20.37c.86,0,1.67-.12,2.43-.36,1.52-.48,2.81-1.41,3.77-2.71.48-.65.87-1.4,1.17-2.23l.33-.94c.84-2.35.33-3.81-.24-4.62-.55-.79-1.71-1.73-4.09-1.73h0Z"/>
  <path class="cls-1" d="m99.44,6.04c-2.75-3.9-7.26-6.04-12.69-6.04h-51.3l-2.75,4.55-.17.31-1.7,2.78L0,90.38h62.7s11.53-.51,22.9-21.27c.78-1.46,1.56-2.99,2.34-4.61,7.6-15.88,5.36-23.38,4.72-24.63l.14-.24.92-1.49.37-.61.07-.14.54-.85.14-.24,1.09-1.73.68-1.15c.95-1.56,1.73-3.26,2.37-5.02l1.59-4.51c2.51-6.95,2.1-13.3-1.12-17.85h0Zm-5.39,15.57l-1.63,4.51c-1.8,5.05-4.95,8.72-9.43,10.92l-2.99,1.46,3.05,1.36c1.56.68,6.38,2.82,2.85,12.69l-.98,2.75c-3.36,9.36-11.4,15.91-19.58,15.91H17.03L40.03,6.72h46.55c3.22,0,5.7,1.12,7.16,3.19,1.93,2.71,2.04,6.89.31,11.7Z"/>
</svg>