<svg width="301" height="42" viewBox="0 0 301 42" fill="none" xmlns="http://www.w3.org/2000/svg">
<path d="M299.263 2.80319C297.993 0.994681 295.9 0 293.376 0H241.815L240.848 2.4734C239.717 0.87766 237.857 0 235.605 0H216.824C214.704 0 212.605 0.776596 210.82 2.1383L211.66 0H197.273L194.069 5.27128L192.831 8.31383L191.407 0H176.6L174.167 4.01064L168.488 19.3511L169.231 0H151.678L135.808 23.5266L144.803 0H129.497L126.192 5.44149L123.993 11.2979H121.017L125.039 0.00531915H109.733L106.428 5.44681L100.249 22.5957H90.8086L98.8575 0.00531915H83.5566L75.0348 21.766L75.8689 0.00531915H58.3153L44.1353 21.0266C44.0716 20.0319 43.8325 19.2074 43.4925 18.5266L43.5615 18.4149L43.9865 17.7234L44.1566 17.4415L44.1937 17.3777L44.4381 16.9787L44.5125 16.867L45.0013 16.0585L45.3254 15.5319C45.761 14.8032 46.1276 14.016 46.4251 13.1915L47.1689 11.0957C48.3218 7.8617 48.1306 4.92021 46.643 2.80319C45.3732 0.994681 43.2799 0 40.7563 0H16.9548L15.6798 2.12234L14.8031 3.55319L0.500977 42H289.886L293.392 36.2181L291.182 27.516C291.761 26.8883 292.282 26.2128 292.744 25.484L292.819 25.3564C292.819 25.3564 292.856 25.3032 292.872 25.2713L292.904 25.2181L292.935 25.1596L292.973 25.1011L293.047 24.9787V24.9681C293.047 24.9681 293.09 24.9096 293.111 24.883C293.121 24.8617 293.132 24.8457 293.143 24.8245C293.153 24.8032 293.169 24.7872 293.175 24.766C293.185 24.75 293.196 24.734 293.206 24.7128C293.217 24.6915 293.233 24.6809 293.238 24.6543C293.254 24.633 293.265 24.617 293.276 24.5957C293.291 24.5691 293.302 24.5479 293.318 24.5213L293.334 24.4947C293.334 24.4947 293.361 24.4521 293.376 24.4255C293.392 24.3989 293.403 24.3777 293.419 24.3511L293.435 24.3298C293.456 24.2979 293.472 24.266 293.483 24.2553C293.493 24.234 293.509 24.2128 293.52 24.1862C293.531 24.1702 293.541 24.1596 293.546 24.1383C293.562 24.1117 293.573 24.0957 293.589 24.0691C293.605 24.0479 293.616 24.0266 293.626 24.0053L293.701 23.8883L293.711 23.8617C293.711 23.8617 293.748 23.8032 293.77 23.7713L293.807 23.7128L293.839 23.6543L293.855 23.633L293.881 23.5798L293.924 23.5106C293.924 23.5106 293.95 23.4628 293.966 23.4362C293.982 23.4096 293.993 23.3883 294.009 23.3617L294.025 23.3351C294.025 23.3351 294.056 23.2872 294.072 23.2606C294.088 23.234 294.099 23.2128 294.12 23.1862L294.136 23.1596C294.136 23.1596 294.168 23.1011 294.189 23.0745L294.216 23.0266L294.258 22.9521L294.269 22.9362C294.269 22.9362 294.306 22.8723 294.327 22.8404L294.359 22.7872L294.375 22.7606C294.375 22.7606 294.402 22.7181 294.402 22.7128L294.466 22.6117L294.482 22.5904C294.503 22.5585 294.519 22.5213 294.54 22.4947L294.551 22.4787C294.572 22.4468 294.588 22.4149 294.593 22.4043C294.609 22.3777 294.62 22.3617 294.63 22.3351C294.646 22.3138 294.657 22.3032 294.657 22.2979L294.747 22.1489L294.763 22.1277C294.784 22.0957 294.8 22.0638 294.822 22.0319L294.832 22.016C294.832 22.016 294.864 21.9628 294.885 21.9362C294.901 21.9096 294.912 21.883 294.928 21.8617L294.96 21.8085L294.992 21.75L295.066 21.633L295.082 21.6064C295.082 21.6064 295.119 21.5479 295.14 21.516L295.151 21.4947C295.151 21.4947 295.188 21.4309 295.215 21.3989L295.247 21.3457L295.268 21.3191C295.268 21.3191 295.294 21.2713 295.31 21.2447C295.321 21.2234 295.337 21.2074 295.348 21.1862C295.358 21.1649 295.374 21.1489 295.379 21.1277C295.39 21.1064 295.401 21.0957 295.406 21.0851C295.422 21.0638 295.432 21.0372 295.448 21.0106C295.464 20.9894 295.475 20.9787 295.486 20.9574C295.496 20.9309 295.512 20.9149 295.518 20.8936C295.533 20.8723 295.544 20.8564 295.555 20.8351C295.565 20.8138 295.576 20.8032 295.581 20.7872C295.597 20.7606 295.608 20.7447 295.618 20.7181C295.629 20.7021 295.645 20.6862 295.65 20.6649C295.666 20.6383 295.677 20.617 295.693 20.5904L295.709 20.5638C295.709 20.5638 295.741 20.5106 295.757 20.4894C295.773 20.4628 295.783 20.4468 295.799 20.4202L295.831 20.3617L295.847 20.3351L295.874 20.2872L295.916 20.2128C295.916 20.2128 295.943 20.1702 295.958 20.1436C295.974 20.117 295.985 20.0957 296.001 20.0691L296.017 20.0426C296.017 20.0426 296.049 19.9894 296.07 19.9628C296.086 19.9362 296.097 19.9202 296.107 19.8936L296.192 19.7553C296.192 19.7553 296.219 19.7128 296.235 19.6862C296.878 18.6862 297.409 17.6117 297.807 16.4894L299.752 11.0372C300.905 7.80319 300.719 4.8617 299.226 2.74468L299.263 2.80319ZM243.935 3.13298H266.972L264.591 9.81383H250.22L248.329 15.1117H256.442L254.311 21.1011H246.193L244.307 26.4043H258.684L256.303 33.0851H233.267L243.94 3.12766L243.935 3.13298ZM216.744 3.13298H235.52C236.752 3.13298 237.687 3.53192 238.213 4.28723C238.851 5.18617 238.888 6.54787 238.33 8.11702L237.044 11.7234L228.379 11.8032C228.353 11.5532 228.273 11.3191 228.13 11.1223C227.609 10.383 226.552 10.383 225.983 10.383H220.128C218.609 10.383 217.127 11.5532 216.526 13.2287L213.206 22.5372C212.871 23.484 212.924 24.3564 213.365 24.9734C213.748 25.516 214.375 25.8191 215.14 25.8191H220.952C222.503 25.8191 223.996 24.6702 224.581 23.0266L225.553 20.2979H221.653L222.886 16.8511H235.212L231.36 27.6596C230.244 30.7979 227.29 33.0745 224.331 33.0745H205.555C204.339 33.0745 203.414 32.6809 202.883 31.9255C202.256 31.0319 202.213 29.6915 202.766 28.1436L209.736 8.59043C210.868 5.42021 213.811 3.11702 216.744 3.11702V3.13298ZM178.72 3.13298H188.687L192.162 23.4309L199.398 3.13298H207.144L196.47 33.0904H186.498L182.939 13.1011L175.814 33.0904H168.052L178.725 3.13298H178.72ZM153.256 3.13298H165.89L164.747 33.0904H156.178L156.523 27.8564H144.718L141.334 33.0904H133.046L153.256 3.13298ZM111.858 3.13298H120.523L116.501 14.4255H127.6L131.622 3.13298H140.287L129.614 33.0904H120.954L124.975 21.7979H113.872L109.85 33.0904H101.19L111.858 3.13298ZM85.6764 3.13298H94.3363L86.2874 25.7234H99.2613L96.6368 33.0904H74.9976L85.6711 3.13298H85.6764ZM59.8932 3.13298H72.5324L71.3848 33.0904H62.8152L63.1606 27.8564H51.3555L47.9712 33.0904H39.6885L59.8932 3.13298ZM19.0693 3.13298H40.6713C42.1749 3.13298 43.3224 3.64362 44.0025 4.60638C44.8897 5.86702 44.9375 7.80319 44.1353 10.0479L43.3915 12.1383C42.5521 14.484 41.0804 16.1915 39.0031 17.2181L37.6165 17.9043L39.0297 18.5319C39.7628 18.8511 41.9889 19.8351 40.3526 24.4309L39.901 25.6968C38.3496 30.0532 34.6147 33.0957 30.8267 33.0957H8.39585L19.0693 3.1383V3.13298ZM296.755 10.0479L294.811 15.5C293.536 19.0851 290.63 21.9096 287.405 22.6968L286.698 22.867L289.286 33.0851H279.643L277.778 22.8936H272.423L268.789 33.0851H260.129L270.797 3.12766H293.291C294.795 3.12766 295.943 3.6383 296.623 4.60106C297.51 5.8617 297.558 7.79787 296.755 10.0426V10.0479Z" fill="#FDFDFD"/>
<path d="M31.9423 24.3564L32.0964 23.9202C32.4843 22.8245 32.2505 22.1542 31.9848 21.7766C31.7298 21.4096 31.1932 20.9734 30.0882 20.9734H21.152L19.0693 26.8245H28.5209C30.1147 26.8245 31.3898 25.9042 31.9423 24.3617V24.3564Z" fill="#FDFDFD"/>
<path d="M34.7212 12.7873L34.8753 12.3511C35.2631 11.2607 35.0294 10.5851 34.7637 10.2075C34.5087 9.84047 33.9721 9.4043 32.8671 9.4043H25.275L23.1924 15.2607H31.2998C32.8936 15.2607 34.1687 14.3351 34.7212 12.7926V12.7873Z" fill="#FDFDFD"/>
<path d="M64.5103 7.44678L55.3828 21.5851H63.5805L64.5103 7.44678Z" fill="#FDFDFD"/>
<path d="M157.873 7.44678L148.745 21.5851H156.943L157.873 7.44678Z" fill="#FDFDFD"/>
<path d="M285.306 10.2234H276.933L274.75 16.351H283.643C285.237 16.351 286.512 15.4308 287.065 13.8883L287.315 13.1702C287.702 12.0798 287.474 11.4042 287.208 11.0319C286.948 10.6596 286.411 10.2234 285.306 10.2234Z" fill="#FDFDFD"/>
</svg>
