<svg width="53" height="53" viewBox="0 0 53 53" fill="none" xmlns="http://www.w3.org/2000/svg">
<path opacity="0.25" fill-rule="evenodd" clip-rule="evenodd" d="M26.8116 51.7061C40.7628 51.7061 52.0724 40.4057 52.0724 26.4661C52.0724 12.5264 40.7628 1.22607 26.8116 1.22607C12.8604 1.22607 1.55078 12.5264 1.55078 26.4661C1.55078 40.4057 12.8604 51.7061 26.8116 51.7061Z" stroke="white" stroke-width="1.5"/>
<path d="M29.1122 20.5841H31.4338C31.6474 20.5841 31.8208 20.4419 31.8208 20.2667V18.3627C31.8208 18.1876 31.6474 18.0454 31.4338 18.0454H29.1122C26.7657 18.0454 24.8558 19.6111 24.8558 21.5361V23.7574H22.1472C21.9336 23.7574 21.7603 23.8996 21.7603 24.0747V25.9787C21.7603 26.1539 21.9336 26.2961 22.1472 26.2961H24.8558V32.9601C24.8558 33.1352 25.0291 33.2774 25.2427 33.2774H27.5644C27.778 33.2774 27.9513 33.1352 27.9513 32.9601V26.2961H30.6599C30.8263 26.2961 30.9741 26.2085 31.0275 26.079L31.8014 24.175C31.8409 24.0785 31.8208 23.9719 31.748 23.8888C31.6745 23.8063 31.5584 23.7574 31.4338 23.7574H27.9513V21.5361C27.9513 21.0112 28.4722 20.5841 29.1122 20.5841Z" fill="white"/>
</svg>
