<svg width="53" height="53" viewBox="0 0 53 53" fill="none" xmlns="http://www.w3.org/2000/svg">
<path opacity="0.25" fill-rule="evenodd" clip-rule="evenodd" d="M26.6378 51.7061C40.5889 51.7061 51.8986 40.4057 51.8986 26.4661C51.8986 12.5264 40.5889 1.22607 26.6378 1.22607C12.6866 1.22607 1.37695 12.5264 1.37695 26.4661C1.37695 40.4057 12.6866 51.7061 26.6378 51.7061Z" stroke="white" stroke-width="1.5"/>
<path d="M20.8402 21.7729C22.0229 21.7729 22.9817 20.9385 22.9817 19.9092C22.9817 18.8798 22.0229 18.0454 20.8402 18.0454C19.6575 18.0454 18.6987 18.8798 18.6987 19.9092C18.6987 20.9385 19.6575 21.7729 20.8402 21.7729Z" fill="white"/>
<path d="M22.6248 23.0178H19.0556C18.8586 23.0178 18.6987 23.157 18.6987 23.3284V32.6472C18.6987 32.8187 18.8586 32.9578 19.0556 32.9578H22.6248C22.8218 32.9578 22.9817 32.8187 22.9817 32.6472V23.3284C22.9817 23.157 22.8218 23.0178 22.6248 23.0178Z" fill="white"/>
<path d="M33.2614 22.5014C31.7359 22.0466 29.8279 22.4461 28.6836 23.1624C28.6444 23.0288 28.5045 22.9294 28.3381 22.9294H24.769C24.572 22.9294 24.4121 23.0686 24.4121 23.24V32.5588C24.4121 32.7302 24.572 32.8694 24.769 32.8694H28.3381C28.5351 32.8694 28.695 32.7302 28.695 32.5588V25.8617C29.2718 25.4293 30.0149 25.2914 30.6231 25.5163C31.2127 25.7331 31.5503 26.2624 31.5503 26.9675V32.5588C31.5503 32.7302 31.7102 32.8694 31.9072 32.8694H35.4764C35.6734 32.8694 35.8333 32.7302 35.8333 32.5588V26.3419C35.7926 23.7892 34.4128 22.8443 33.2614 22.5014Z" fill="white"/>
</svg>
