<?xml version="1.0" encoding="UTF-8"?>
<svg id="Warstwa_2" data-name="Warstwa 2" xmlns="http://www.w3.org/2000/svg" viewBox="0 0 192.57 101.64">
  <defs>
    <style>
      .cls-1 {
        fill: #878787;
        stroke-width: 0px;
      }
    </style>
  </defs>
  <path class="cls-1" d="m183.86,98.14v-3.5H8.71c-.48,0-.89-.19-1.21-.5-.32-.32-.5-.73-.5-1.21V8.71c0-.48.19-.89.5-1.21.32-.32.73-.5,1.21-.5h175.14c.48,0,.89.19,1.21.5.32.32.5.73.5,1.21v84.22c0,.48-.19.89-.5,1.21-.32.32-.73.5-1.21.5v7c2.39,0,4.59-.98,6.16-2.55,1.57-1.57,2.55-3.77,2.55-6.16V8.71c0-2.39-.98-4.59-2.55-6.16C188.45.98,186.25,0,183.86,0H8.71c-2.39,0-4.59.98-6.16,2.55C.98,4.12,0,6.32,0,8.71v84.22c0,2.39.98,4.59,2.55,6.16,1.57,1.57,3.77,2.55,6.16,2.55h175.14v-3.5Z"/>
  <path class="cls-1" d="m127.73,47.45c-7.28,0-13.18,6.05-13.18,13.51s5.9,13.51,13.18,13.51,13.18-6.05,13.18-13.51-5.9-13.51-13.18-13.51Zm0,23.99c-5.65,0-10.23-4.69-10.23-10.48s4.58-10.48,10.23-10.48,10.23,4.69,10.23,10.48-4.58,10.48-10.23,10.48Z"/>
  <path class="cls-1" d="m127.73,47.45v-1.07c-3.94,0-7.51,1.64-10.08,4.28-2.57,2.64-4.16,6.28-4.16,10.3,0,4.01,1.59,7.66,4.16,10.3,2.57,2.64,6.14,4.28,10.08,4.28,3.94,0,7.51-1.64,10.08-4.28,2.57-2.64,4.16-6.28,4.16-10.3,0-4.01-1.59-7.66-4.16-10.3-2.57-2.64-6.14-4.28-10.08-4.28v2.14c3.34,0,6.35,1.38,8.55,3.63,2.2,2.25,3.55,5.36,3.56,8.8,0,3.45-1.36,6.55-3.56,8.8-2.2,2.25-5.21,3.63-8.55,3.63-3.34,0-6.35-1.38-8.55-3.63-2.2-2.25-3.55-5.36-3.56-8.8,0-3.45,1.36-6.55,3.56-8.8,2.2-2.25,5.21-3.63,8.55-3.63v-1.07Zm0,23.99v-1.07c-2.52,0-4.8-1.04-6.47-2.75-1.66-1.7-2.69-4.06-2.69-6.67,0-2.61,1.03-4.96,2.69-6.67,1.66-1.7,3.94-2.75,6.47-2.75,2.52,0,4.8,1.04,6.47,2.75,1.66,1.7,2.69,4.06,2.69,6.67,0,2.61-1.03,4.96-2.69,6.67-1.66,1.7-3.94,2.75-6.47,2.75v2.14c3.12,0,5.96-1.3,8-3.39,2.04-2.09,3.3-4.98,3.3-8.16,0-3.18-1.26-6.07-3.3-8.16-2.04-2.09-4.87-3.39-8-3.39-3.12,0-5.96,1.3-8,3.39-2.04,2.09-3.3,4.98-3.3,8.16,0,3.18,1.26,6.07,3.3,8.16,2.04,2.09,4.87,3.39,8,3.39v-1.07Z"/>
  <path class="cls-1" d="m87.61,47.45c-7.28,0-13.18,6.05-13.18,13.51s5.9,13.51,13.18,13.51,13.18-6.05,13.18-13.51-5.9-13.51-13.18-13.51Zm0,23.99c-5.65,0-10.23-4.69-10.23-10.48s4.58-10.48,10.23-10.48,10.23,4.69,10.23,10.48-4.58,10.48-10.23,10.48Z"/>
  <path class="cls-1" d="m87.61,47.45v-1.07c-3.94,0-7.51,1.64-10.08,4.28-2.57,2.64-4.16,6.28-4.16,10.3,0,4.01,1.59,7.66,4.16,10.3,2.57,2.64,6.14,4.28,10.08,4.28,3.94,0,7.51-1.64,10.08-4.28,2.57-2.64,4.16-6.28,4.16-10.3,0-4.01-1.59-7.66-4.16-10.3-2.57-2.64-6.14-4.28-10.08-4.28v2.14c3.34,0,6.35,1.38,8.55,3.63,2.2,2.25,3.55,5.36,3.56,8.8,0,3.45-1.36,6.55-3.56,8.8-2.2,2.25-5.21,3.63-8.55,3.63-3.34,0-6.35-1.38-8.55-3.63-2.2-2.25-3.55-5.36-3.56-8.8,0-3.45,1.36-6.55,3.56-8.8,2.2-2.25,5.21-3.63,8.55-3.63v-1.07Zm0,23.99v-1.07c-2.52,0-4.8-1.04-6.47-2.75-1.66-1.7-2.69-4.06-2.69-6.67,0-2.61,1.03-4.96,2.69-6.67,1.66-1.7,3.94-2.75,6.47-2.75,2.52,0,4.8,1.04,6.47,2.75,1.66,1.7,2.69,4.06,2.69,6.67,0,2.61-1.03,4.96-2.69,6.67-1.66,1.7-3.94,2.75-6.47,2.75v2.14c3.12,0,5.96-1.3,8-3.39,2.04-2.09,3.3-4.98,3.3-8.16,0-3.18-1.26-6.07-3.3-8.16-2.04-2.09-4.87-3.39-8-3.39-3.12,0-5.96,1.3-8,3.39-2.04,2.09-3.3,4.98-3.3,8.16,0,3.18,1.26,6.07,3.3,8.16,2.04,2.09,4.87,3.39,8,3.39v-1.07Z"/>
  <path class="cls-1" d="m39.27,30.67v11.69h-14.36v-.71h5.78v-9.65H11.24v9.65h1.12s3.05,0,3.05,0v.71h-4.17v12.29h28.02v4.4h30.86v-.07h.21c.13-4.24,2.08-8.05,5.21-10.85,3.24-2.89,7.69-4.67,12.63-4.67,4.94,0,9.39,1.78,12.63,4.67,3.11,2.78,5.05,6.57,5.2,10.77v.08s0,0,0,0h4.64c0-.37-.06-.74-.09-1.11.4-3.64,2.18-6.9,4.93-9.35,3.12-2.78,7.41-4.5,12.17-4.5,4.76,0,9.05,1.72,12.17,4.5,3.02,2.7,4.9,6.37,5.02,10.46h.28v.07h34.95v-28.38H39.27Zm136.18,23.64h-26.89v.02c-2.49-8.23-10.87-14.3-20.88-14.3-8.44,0-15.71,4.31-19.29,10.59-3.65-6.68-11.3-11.3-20.19-11.3-10.45,0-19.19,6.37-21.71,14.99h-21.91v-4.05h-3.14s-25.94,0-25.94,0v-3.65h3.05v-7.74h-3.05v-2.53h10.33v2.53h-4.03v4.6h-.02v3.14h22.79v-11.2h130.88v18.9Z"/>
  <rect class="cls-1" x="92.59" y="-50.4" width="7.38" height="199.6" transform="translate(10.95 115.96) rotate(-65.11)"/>
</svg>