<?xml version="1.0" encoding="UTF-8"?>
<svg id="Warstwa_1" data-name="Warstwa 1" xmlns="http://www.w3.org/2000/svg" viewBox="0 0 576.72 107.89">
  <defs>
    <style>
      .cls-1 {
        fill: #373f51;
      }
    </style>
  </defs>
  <path class="cls-1" d="m568.33,19.29c-2.39-3.4-6.33-5.27-11.08-5.27h-97.05l-1.82,4.65c-2.13-3-5.63-4.65-9.87-4.65h-35.35c-3.99,0-7.94,1.46-11.3,4.02l1.58-4.02h-27.08l-6.03,9.91-2.33,5.72-2.68-15.63h-27.87l-4.58,7.54-10.69,28.84,1.4-36.38h-33.04l-29.87,44.23,16.93-44.23h-28.81l-6.22,10.23-4.14,11.01h-5.6l7.57-21.23h-28.81l-6.22,10.23-11.63,32.24h-17.77l15.15-42.47h-28.8l-16.04,40.91,1.57-40.91h-33.04l-26.69,39.52c-.12-1.87-.57-3.42-1.21-4.7l.13-.21.8-1.3.32-.53.07-.12.46-.75.14-.21.92-1.52.61-.99c.82-1.37,1.51-2.85,2.07-4.4l1.4-3.94c2.17-6.08,1.81-11.61-.99-15.59-2.39-3.4-6.33-5.27-11.08-5.27h-44.8l-2.4,3.99-1.65,2.69L5.99,92.98h544.69l6.6-10.87-4.16-16.36c1.09-1.18,2.07-2.45,2.94-3.82l.14-.24s.07-.1.1-.16l.06-.1.06-.11.07-.11.14-.23v-.02c.05-.05.08-.11.12-.16.02-.04.04-.07.06-.11.02-.04.05-.07.06-.11.02-.03.04-.06.06-.1.02-.04.05-.06.06-.11.03-.04.05-.07.07-.11.03-.05.05-.09.08-.14l.03-.05s.05-.08.08-.13c.03-.05.05-.09.08-.14l.03-.04c.04-.06.07-.12.09-.14.02-.04.05-.08.07-.13.02-.03.04-.05.05-.09.03-.05.05-.08.08-.13.03-.04.05-.08.07-.12l.14-.22.02-.05c.04-.05.07-.11.11-.17l.07-.11.06-.11.03-.04c.03-.05.05-.1.05-.1l.08-.13s.05-.09.08-.14c.03-.05.05-.09.08-.14l.03-.05s.06-.09.09-.14c.03-.05.05-.09.09-.14l.03-.05c.03-.05.06-.11.1-.16l.05-.09.08-.14.02-.03c.04-.05.07-.12.11-.18l.06-.1.03-.05s.05-.08.05-.09l.12-.19.03-.04c.04-.06.07-.13.11-.18l.02-.03c.04-.06.07-.12.08-.14.03-.05.05-.08.07-.13.03-.04.05-.06.05-.07l.17-.28.03-.04c.04-.06.07-.12.11-.18l.02-.03c.04-.05.06-.1.1-.15.03-.05.05-.1.08-.14l.06-.1.06-.11.14-.22.03-.05c.04-.05.07-.11.11-.17l.02-.04c.04-.05.07-.12.12-.18h0l.06-.1.04-.05s.05-.09.08-.14c.02-.04.05-.07.07-.11.02-.04.05-.07.06-.11.02-.04.04-.06.05-.08.03-.04.05-.09.08-.14.03-.04.05-.06.07-.1.02-.05.05-.08.06-.12.03-.04.05-.07.07-.11.02-.04.04-.06.05-.09.03-.05.05-.08.07-.13.02-.03.05-.06.06-.1.03-.05.05-.09.08-.14l.03-.05s.06-.1.09-.14c.03-.05.05-.08.08-.13l.06-.11.03-.05s.05-.09.05-.09l.08-.14s.05-.08.08-.13c.03-.05.05-.09.08-.14l.03-.05c.04-.05.06-.1.1-.15.03-.05.05-.08.07-.13l.16-.26s.05-.08.08-.13c1.21-1.88,2.21-3.9,2.96-6.01l3.66-10.25c2.17-6.08,1.82-11.61-.99-15.59Zm-104.14.62h43.36l-4.48,12.56h-27.05l-3.56,9.96h15.27l-4.01,11.26h-15.28l-3.55,9.97h27.06l-4.48,12.56h-43.36l20.09-56.32Zm-51.18,0h35.34c2.32,0,4.08.75,5.07,2.17,1.2,1.69,1.27,4.25.22,7.2l-2.42,6.78-16.31.15c-.05-.47-.2-.91-.47-1.28-.98-1.39-2.97-1.39-4.04-1.39h-11.02c-2.86,0-5.65,2.2-6.78,5.35l-6.25,17.5c-.63,1.78-.53,3.42.3,4.58.72,1.02,1.9,1.59,3.34,1.59h10.94c2.92,0,5.73-2.16,6.83-5.25l1.83-5.13h-7.34l2.32-6.48h23.2l-7.25,20.32c-2.1,5.9-7.66,10.18-13.23,10.18h-35.34c-2.29,0-4.03-.74-5.03-2.16-1.18-1.68-1.26-4.2-.22-7.11l13.12-36.76c2.13-5.96,7.67-10.29,13.19-10.29Zm-71.57,0h18.76l6.54,38.16,13.62-38.16h14.58l-20.09,56.32h-18.77l-6.7-37.58-13.41,37.58h-14.61l20.09-56.32Zm-47.93,0h23.78l-2.15,56.32h-16.13l.65-9.84h-22.22l-6.37,9.84h-15.6l38.04-56.32Zm-77.92,0h16.31l-7.57,21.23h20.89l7.57-21.23h16.31l-20.09,56.32h-16.3l7.57-21.23h-20.9l-7.57,21.23h-16.3l20.08-56.32Zm-49.28,0h16.3l-15.15,42.47h24.42l-4.94,13.85h-40.73l20.09-56.32Zm-48.53,0h23.79l-2.16,56.32h-16.13l.65-9.84h-22.22l-6.37,9.84h-15.59l38.03-56.32Zm-76.84,0h40.66c2.83,0,4.99.96,6.27,2.77,1.67,2.37,1.76,6.01.25,10.23l-1.4,3.93c-1.58,4.41-4.35,7.62-8.26,9.55l-2.61,1.29,2.66,1.18c1.38.6,5.57,2.45,2.49,11.09l-.85,2.38c-2.92,8.19-9.95,13.91-17.08,13.91H20.85l20.09-56.32Zm522.67,13l-3.66,10.25c-2.4,6.74-7.87,12.05-13.94,13.53l-1.33.32,4.87,19.21h-18.15l-3.51-19.16h-10.08l-6.84,19.16h-16.3l20.08-56.32h42.34c2.83,0,4.99.96,6.27,2.77,1.67,2.37,1.76,6.01.25,10.23Z"/>
  <path class="cls-1" d="m65.17,59.81l.29-.82c.73-2.06.29-3.32-.21-4.03-.48-.69-1.49-1.51-3.57-1.51h-16.82l-3.92,11h17.79c3,0,5.4-1.73,6.44-4.63Z"/>
  <path class="cls-1" d="m70.4,38.06l.29-.82c.73-2.05.29-3.32-.21-4.03-.48-.69-1.49-1.51-3.57-1.51h-14.29l-3.92,11.01h15.26c3,0,5.4-1.74,6.44-4.64Z"/>
  <polygon class="cls-1" points="126.47 28.02 109.29 54.6 124.72 54.6 126.47 28.02"/>
  <polygon class="cls-1" points="302.2 28.02 285.02 54.6 300.45 54.6 302.2 28.02"/>
  <path class="cls-1" d="m542.06,33.24h-15.76l-4.11,11.52h16.74c3,0,5.4-1.73,6.44-4.63l.47-1.35c.73-2.05.3-3.32-.2-4.02-.49-.7-1.5-1.52-3.58-1.52Z"/>
</svg>