<?xml version="1.0" encoding="UTF-8"?>
<svg id="Warstwa_1" data-name="Warstwa 1" xmlns="http://www.w3.org/2000/svg" viewBox="0 0 77.95 111.42">
  <defs>
    <style>
      .cls-1 {
        fill: #2f2f2f;
        stroke-width: 0px;
      }
    </style>
  </defs>
  <path class="cls-1" d="m53.51,5.24v19.45h17.6c-5.53-6.11-11.02-12.18-17.6-19.45Z"/>
  <path class="cls-1" d="m36.78,87.24h-1.15v8.95h1.19c.98,0,1.74-.35,2.27-1.05.53-.7.79-1.74.79-3.13v-.62c0-1.38-.26-2.41-.79-3.11-.53-.7-1.3-1.05-2.31-1.05Z"/>
  <path class="cls-1" d="m24.87,87.24h-2.29v4.11h2.25c.67,0,1.17-.17,1.52-.5.35-.33.52-.8.52-1.41,0-.67-.18-1.2-.54-1.59-.36-.4-.85-.6-1.47-.61Z"/>
  <path class="cls-1" d="m53.5,45.55h-19.05l-9.41,26.39h19.77c3.35,0,6.64-2.68,8.01-6.51l.4-1.12c1.44-4.04-.53-4.92-1.17-5.19l-1.25-.56,1.22-.6c1.83-.9,3.12-2.4,3.86-4.47l.67-1.85c.71-1.97.67-3.68-.12-4.79-.6-.85-1.61-1.31-2.93-1.31Zm-7.57,18.32l-.14.39c-.12.34-.28.64-.48.91-.39.53-.92.91-1.54,1.11-.31.1-.64.15-1,.15h-8.34l1.84-5.15h7.88c.97,0,1.45.39,1.67.71.23.33.44.93.1,1.89Zm2.62-10.84c-.03.2-.08.41-.16.65l-.14.39c-.24.68-.65,1.22-1.17,1.6-.52.37-1.15.58-1.85.58h-7.15l1.84-5.16h6.7c.49,0,.85.1,1.12.23.27.14.44.31.56.48.18.25.34.65.26,1.24Z"/>
  <path class="cls-1" d="m43.94,32.9V0H0v111.42h77.95V32.9h-34.01Zm-15.08,59.85c-.99.83-2.36,1.25-4.09,1.25h-2.19v4.83h-3.43v-14.25h5.68c1.09,0,2.05.2,2.89.6.84.4,1.49.97,1.95,1.71s.69,1.58.69,2.52c0,1.39-.5,2.5-1.49,3.33Zm14.52-.74c0,1.3-.28,2.47-.83,3.51-.55,1.03-1.33,1.84-2.33,2.43-1,.58-2.12.88-3.35.89h-4.69v-14.25h4.59c1.26,0,2.39.29,3.39.86,1,.57,1.79,1.38,2.35,2.42.56,1.04.85,2.21.86,3.5v.66Zm11.29-4.78h-6.1v3.28h5.54v2.64h-5.54v5.67h-3.43v-14.25h9.53v2.65Zm4.55-34.66l-.65,1.85c-.26.72-.58,1.42-.97,2.05l-.28.47-.44.71-.06.1-.22.35-.03.06-.15.25-.37.61-.06.1c.26.51,1.18,3.58-1.93,10.08-.32.67-.64,1.29-.96,1.89-4.65,8.5-9.37,8.71-9.37,8.71h-25.66l12.62-33.86.69-1.14.07-.12,1.12-1.86h20.99c2.22,0,4.07.87,5.19,2.47,1.32,1.86,1.49,4.46.46,7.3Z"/>
</svg>