<?xml version="1.0" encoding="UTF-8"?>
<svg id="Warstwa_1" data-name="Warstwa 1" xmlns="http://www.w3.org/2000/svg" viewBox="0 0 80.86 115.58">
  <defs>
    <style>
      .cls-1 {
         fill: #2f2f2f;
        stroke-width: 0px;
      }
    </style>
  </defs>
  <path class="cls-1" d="m55.5,5.43v20.18h18.26c-5.74-6.34-11.43-12.63-18.26-20.18Z"/>
  <path class="cls-1" d="m55.5,47.25h-19.76l-9.77,27.38h20.51c3.47,0,6.88-2.78,8.31-6.75l.42-1.17c1.5-4.19-.55-5.1-1.21-5.39l-1.3-.58,1.27-.62c1.9-.94,3.24-2.49,4-4.64l.69-1.92c.73-2.05.69-3.82-.13-4.97-.62-.88-1.67-1.35-3.04-1.35Zm-7.85,19l-.14.4c-.13.35-.29.67-.5.95-.41.55-.96.95-1.6,1.15-.32.1-.67.15-1.03.15h-8.65l1.91-5.35h8.18c1.01,0,1.5.4,1.73.74.24.34.46.96.1,1.96Zm2.71-11.25c-.03.2-.08.43-.17.68l-.14.4c-.25.7-.67,1.27-1.21,1.66-.54.39-1.19.6-1.92.6h-7.42l1.91-5.35h6.95c.5,0,.88.1,1.16.24.28.14.46.33.58.49.18.26.35.67.27,1.28Z"/>
  <path class="cls-1" d="m45.58,34.13V0H0v115.58h80.86V34.13h-35.28Zm-21.6,58.62c.41.31,1.12.63,2.14.95,1.02.33,1.86.68,2.52,1.06,1.6.92,2.4,2.19,2.4,3.81,0,1.29-.49,2.31-1.46,3.05s-2.31,1.11-4.01,1.11c-1.2,0-2.28-.21-3.25-.64s-1.7-1.02-2.19-1.77c-.49-.75-.74-1.61-.74-2.58h3.57c0,.79.2,1.38.61,1.75.41.38,1.07.56,1.99.56.59,0,1.05-.13,1.4-.38.34-.25.51-.61.51-1.07,0-.52-.18-.93-.55-1.22-.37-.29-1.02-.59-1.94-.9-.93-.31-1.68-.61-2.27-.9-1.92-.94-2.87-2.23-2.87-3.88,0-.82.24-1.54.72-2.17.48-.63,1.15-1.11,2.03-1.46s1.85-.52,2.94-.52,2.01.19,2.86.57c.84.38,1.5.92,1.96,1.62.47.7.7,1.5.7,2.4h-3.55c0-.6-.18-1.07-.55-1.4s-.87-.5-1.5-.5-1.14.14-1.51.42c-.37.28-.55.64-.55,1.07,0,.38.2.72.61,1.03Zm16.57,9.77h-3.9l-4.93-14.78h3.95l2.93,10.76,2.94-10.76h3.98l-4.97,14.78Zm18.15-1.83c-.55.61-1.35,1.1-2.41,1.47s-2.21.56-3.47.56c-1.94,0-3.48-.59-4.64-1.78-1.16-1.18-1.78-2.83-1.86-4.94v-1.28c-.01-1.46.25-2.73.76-3.81s1.25-1.92,2.21-2.51c.96-.59,2.07-.88,3.32-.88,1.84,0,3.27.42,4.29,1.26,1.02.84,1.61,2.1,1.78,3.77h-3.43c-.12-.83-.39-1.41-.79-1.77s-.98-.53-1.73-.53c-.89,0-1.58.38-2.07,1.14-.49.76-.73,1.84-.74,3.25v.89c0,1.48.25,2.58.76,3.32.5.74,1.3,1.11,2.38,1.11.93,0,1.62-.21,2.07-.62v-2.29h-2.48v-2.45h6.04v6.07Zm2.73-46.16l-.68,1.92c-.27.75-.6,1.47-1.01,2.13l-.29.49-.46.73-.06.1-.23.36-.03.06-.16.26-.39.63-.06.1c.27.53,1.22,3.72-2,10.46-.33.69-.66,1.34-.99,1.96-4.82,8.81-9.72,9.03-9.72,9.03h-26.62l13.09-35.13.72-1.18.07-.13,1.17-1.93h21.78c2.3,0,4.22.91,5.39,2.56,1.37,1.93,1.54,4.62.48,7.58Z"/>
</svg>