<?xml version="1.0" encoding="UTF-8"?>
<svg id="Warstwa_1" data-name="Warstwa 1" xmlns="http://www.w3.org/2000/svg" viewBox="0 0 77.94 111.64">
  <defs>
    <style>
      .cls-1 {
        stroke-width: 0px;
      }
    </style>
  </defs>
  <path class="cls-1" d="M.04,111.64c-.01-.48-.04-.96-.04-1.44C0,73.97,0,37.74,0,1.5V0h43.88v32.73h1.6c10.31,0,20.61,0,30.92,0,.51,0,1.03.08,1.54.12v78.79H.04ZM18.15,79.55h1.45c7.46,0,14.93-.06,22.39.03,2.31.03,4.2-.71,5.89-2.17,3.58-3.09,5.69-7.12,7.32-11.46.73-1.96,1.27-3.98.89-6.07-.15-.85.04-1.45.47-2.09,1.52-2.2,2.48-4.64,3.03-7.22.92-4.32-1.69-7.82-5.88-7.85-6.79-.05-13.57-.02-20.36,0-.37,0-.91.21-1.08.49-.73,1.18-1.49,2.38-1.98,3.67-3.94,10.43-7.81,20.88-11.71,31.32-.15.4-.27.81-.45,1.34ZM27.89,94.04c1.91-2.76,3.6-5.27,5.36-7.73.62-.87.66-1.72.42-2.65h-9.84v2.84h5.39c-1.91,2.73-3.64,5.25-5.44,7.73-.62.86-.73,1.7-.46,2.7h10.46v-2.89h-5.88ZM47.96,92.6c1.29-.21,2.49-.28,3.61-.61,2.12-.62,3.26-2.38,3.1-4.52-.15-2.06-1.54-3.6-3.76-3.82-1.73-.17-3.49-.02-5.23-.07-.94-.02-1.21.37-1.19,1.28.05,3.66.02,7.32.02,10.99,0,.34.05.69.09,1.08h3.37v-4.33ZM40.51,96.93v-13.25h-3.34v13.25h3.34Z"/>
  <path class="cls-1" d="M53.51,24.49V5.18c5.9,6.52,11.63,12.84,17.5,19.32h-17.5Z"/>
  <path class="cls-1" d="M24.96,71.77c1.33-3.71,2.57-7.19,3.82-10.67,1.77-4.95,3.54-9.9,5.28-14.86.23-.67.54-.92,1.27-.91,6.03.03,12.06,0,18.09.03,2.56.01,4.07,1.75,3.54,4.25-.77,3.66-1.85,7.19-5.9,8.64.1.16.12.25.17.27,2.55,1.35,3.04,2.41,2.06,5.2-.53,1.53-1.16,3.08-2.07,4.4-1.68,2.44-4.06,3.7-7.13,3.67-5.91-.06-11.82-.02-17.73-.02-.39,0-.78,0-1.4,0ZM36.27,61.11c-.59,1.66-1.17,3.29-1.8,5.07,2.76,0,5.35,0,7.93,0,1.91,0,2.94-.8,3.46-2.65.4-1.43-.23-2.37-1.74-2.4-2.59-.05-5.19-.01-7.85-.01ZM38.11,56.04c2.39,0,4.62.01,6.85,0,1.72-.01,2.74-.77,3.29-2.41.58-1.75.03-2.61-1.83-2.67-1.91-.07-3.83-.04-5.74,0-.3,0-.77.19-.86.41-.6,1.5-1.12,3.04-1.7,4.68Z"/>
  <path class="cls-1" d="M48.03,86.25c1.12-.24,2.23-.36,2.84.69.28.47.25,1.39-.04,1.88-.6,1.04-1.7.98-2.8.82v-3.38Z"/>
</svg>