<svg width="1927" height="40" viewBox="0 0 1927 40" fill="none" xmlns="http://www.w3.org/2000/svg">
<path d="M0 40L24.5568 0H105.001L80.4447 40H0Z" fill="#393C43"/>
<path d="M63.2283 40L87.5028 0H165.689L141.415 40H63.2283Z" fill="#393C43"/>
<path d="M126.172 40L150.446 0H226.375L202.1 40H126.172Z" fill="#393C43"/>
<path d="M189.114 40L213.389 0H287.059L262.785 40H189.114Z" fill="#393C43"/>
<path d="M252.058 40L276.615 0H347.745L323.471 40H252.058Z" fill="#393C43"/>
<path d="M315.002 40L339.559 0H408.713L384.157 40H315.002Z" fill="#393C43"/>
<path d="M378.23 40L402.504 0H469.4L444.844 40H378.23Z" fill="#393C43"/>
<path d="M441.175 40L465.449 0H530.087L505.813 40H441.175Z" fill="#393C43"/>
<path d="M504.118 40L528.392 0H590.772L566.498 40H504.118Z" fill="#393C43"/>
<path d="M567.065 40L591.339 0H651.461L627.187 40H567.065Z" fill="#393C43"/>
<path d="M630.009 40L654.566 0H712.43L687.873 40H630.009Z" fill="#393C43"/>
<path d="M692.951 40L717.508 0H773.113L748.557 40H692.951Z" fill="#393C43"/>
<path d="M756.181 40L780.456 0H833.803L809.529 40H756.181Z" fill="#393C43"/>
<path d="M819.126 40L843.4 0H894.49L870.215 40H819.126Z" fill="#393C43"/>
<path d="M882.067 40L906.342 0H955.173L930.899 40H882.067Z" fill="#393C43"/>
<path d="M945.012 40L969.286 0H1015.86L991.585 40H945.012Z" fill="#393C43"/>
<path d="M1007.96 40L1032.52 0H1076.83L1052.27 40H1007.96Z" fill="#393C43"/>
<path d="M1071.18 40L1095.46 0H1137.52L1112.96 40H1071.18Z" fill="#393C43"/>
<path d="M1134.13 40L1158.4 0H1198.2L1173.93 40H1134.13Z" fill="#393C43"/>
<path d="M1197.07 40L1221.35 0H1258.89L1234.61 40H1197.07Z" fill="#393C43"/>
<path d="M1260.02 40L1284.29 0H1319.58L1295.3 40H1260.02Z" fill="#393C43"/>
<path d="M1322.96 40L1347.52 0H1380.55L1355.99 40H1322.96Z" fill="#393C43"/>
<path d="M1385.9 40L1410.46 0H1441.23L1416.67 40H1385.9Z" fill="#393C43"/>
<path d="M1449.13 40L1473.41 0H1501.92L1477.64 40H1449.13Z" fill="#393C43"/>
<path d="M1512.08 40L1536.35 0H1562.6L1538.33 40H1512.08Z" fill="#393C43"/>
<path d="M1575.02 40L1599.29 0H1623.28L1599.01 40H1575.02Z" fill="#393C43"/>
<path d="M1637.97 40L1662.24 0H1683.97L1659.7 40H1637.97Z" fill="#393C43"/>
<path d="M1700.91 40L1725.47 0H1744.94L1720.39 40H1700.91Z" fill="#393C43"/>
<path d="M1764.13 40L1788.41 0H1805.63L1781.07 40H1764.13Z" fill="#393C43"/>
<path d="M1827.08 40L1851.35 0H1866.31L1842.04 40H1827.08Z" fill="#393C43"/>
<path d="M1890.02 40L1914.3 0H1927L1902.72 40H1890.02Z" fill="#393C43"/>
</svg>