<svg width="1885" height="40" viewBox="0 0 1885 40" fill="none" xmlns="http://www.w3.org/2000/svg">
<g clip-path="url(#clip0_242_119)">
<path d="M-42 40L-17.6398 0H62.7801L38.4199 40H-42Z" fill="#AABDD0"/>
<path d="M21.0034 40L45.3637 0H123.525L99.1651 40H21.0034Z" fill="#ADBFD2"/>
<path d="M84.0073 40L108.368 0H184.271L159.911 40H84.0073Z" fill="#B0C1D3"/>
<path d="M146.982 40L171.343 0H244.988L220.628 40H146.982Z" fill="#B3C4D5"/>
<path d="M209.986 40L234.346 0H305.733L281.373 40H209.986Z" fill="#B5C6D6"/>
<path d="M272.99 40L297.35 0H366.479L342.119 40H272.99Z" fill="#B8C8D8"/>
<path d="M335.993 40L360.353 0H427.224L402.864 40H335.993Z" fill="#BBCAD9"/>
<path d="M398.997 40L423.357 0H487.969L463.609 40H398.997Z" fill="#BECCDB"/>
<path d="M461.972 40L486.332 0H548.715L524.355 40H461.972Z" fill="#C1CFDD"/>
<path d="M524.976 40L549.336 0H609.432L585.072 40H524.976Z" fill="#C4D1DE"/>
<path d="M587.979 40L612.339 0H670.177L645.817 40H587.979Z" fill="#C6D3E0"/>
<path d="M650.983 40L675.343 0H730.923L706.563 40H650.983Z" fill="#C9D5E1"/>
<path d="M713.986 40L738.347 0H791.668L767.308 40H713.986Z" fill="#CCD7E3"/>
<path d="M776.961 40L801.322 0H852.413L828.053 40H776.961Z" fill="#CFDAE4"/>
<path d="M839.965 40L864.326 0H913.131L888.77 40H839.965Z" fill="#D2DCE6"/>
<path d="M902.969 40L927.329 0H973.876L949.516 40H902.969Z" fill="#D4DEE8"/>
<path d="M965.972 40L990.332 0H1034.62L1010.26 40H965.972Z" fill="#D7E0E9"/>
<path d="M1028.98 40L1053.34 0H1095.37L1071.01 40H1028.98Z" fill="#DAE2EB"/>
<path d="M1091.95 40L1116.31 0H1156.11L1131.75 40H1091.95Z" fill="#DDE5EC"/>
<path d="M1154.95 40L1179.31 0H1216.86L1192.5 40H1154.95Z" fill="#E0E7EE"/>
<path d="M1217.96 40L1242.32 0H1277.57L1253.21 40H1217.96Z" fill="#E3E9EF"/>
<path d="M1280.96 40L1305.32 0H1338.32L1313.96 40H1280.96Z" fill="#E5EBF1"/>
<path d="M1343.97 40L1368.33 0H1399.07L1374.71 40H1343.97Z" fill="#E8EDF2"/>
<path d="M1406.94 40L1431.3 0H1459.81L1435.45 40H1406.94Z" fill="#EBF0F4"/>
<path d="M1469.94 40L1494.3 0H1520.56L1496.2 40H1469.94Z" fill="#EEF2F6"/>
<path d="M1532.95 40L1557.31 0H1581.3L1556.94 40H1532.95Z" fill="#F1F4F7"/>
<path d="M1595.95 40L1620.31 0H1642.02L1617.66 40H1595.95Z" fill="#F4F6F9"/>
<path d="M1658.96 40L1683.32 0H1702.76L1678.4 40H1658.96Z" fill="#F6F8FA"/>
<path d="M1721.93 40L1746.29 0H1763.51L1739.15 40H1721.93Z" fill="#F9FBFC"/>
<path d="M1784.93 40L1809.29 0H1824.25L1799.89 40H1784.93Z" fill="#FCFDFD"/>
<path d="M1847.94 40L1872.3 0H1885L1860.64 40H1847.94Z" fill="white"/>
</g>
<defs>
<clipPath id="clip0_242_119">
<rect width="1927" height="40" fill="white" transform="translate(-42)"/>
</clipPath>
</defs>
</svg>
