<svg width="1906" height="40" viewBox="0 0 1906 40" fill="none" xmlns="http://www.w3.org/2000/svg">
<path d="M-21 40L3.55679 0H84.0015L59.4447 40H-21Z" fill="#373F51"/>
<path d="M42.2283 40L66.5028 0H144.689L120.415 40H42.2283Z" fill="#3E4557"/>
<path d="M105.172 40L129.446 0H205.375L181.1 40H105.172Z" fill="#444C5D"/>
<path d="M168.114 40L192.389 0H266.059L241.785 40H168.114Z" fill="#4B5262"/>
<path d="M231.058 40L255.615 0H326.745L302.471 40H231.058Z" fill="#525968"/>
<path d="M294.002 40L318.559 0H387.713L363.157 40H294.002Z" fill="#585F6E"/>
<path d="M357.23 40L381.504 0H448.4L423.844 40H357.23Z" fill="#5F6574"/>
<path d="M420.175 40L444.449 0H509.087L484.813 40H420.175Z" fill="#666C7A"/>
<path d="M483.118 40L507.392 0H569.772L545.498 40H483.118Z" fill="#6C727F"/>
<path d="M546.065 40L570.339 0H630.461L606.187 40H546.065Z" fill="#737985"/>
<path d="M609.009 40L633.566 0H691.43L666.873 40H609.009Z" fill="#7A7F8B"/>
<path d="M671.951 40L696.508 0H752.113L727.556 40H671.951Z" fill="#808591"/>
<path d="M735.181 40L759.456 0H812.803L788.529 40H735.181Z" fill="#878C97"/>
<path d="M798.126 40L822.401 0H873.49L849.216 40H798.126Z" fill="#8E929C"/>
<path d="M861.067 40L885.342 0H934.173L909.899 40H861.067Z" fill="#9499A2"/>
<path d="M924.011 40L948.286 0H994.859L970.585 40H924.011Z" fill="#9B9FA8"/>
<path d="M986.958 40L1011.52 0H1055.83L1031.27 40H986.958Z" fill="#A2A5AE"/>
<path d="M1050.18 40L1074.46 0H1116.52L1091.96 40H1050.18Z" fill="#A8ACB4"/>
<path d="M1113.13 40L1137.4 0H1177.2L1152.93 40H1113.13Z" fill="#AFB2B9"/>
<path d="M1176.07 40L1200.35 0H1237.89L1213.61 40H1176.07Z" fill="#B6B9BF"/>
<path d="M1239.02 40L1263.29 0H1298.58L1274.3 40H1239.02Z" fill="#BCBFC5"/>
<path d="M1301.96 40L1326.52 0H1359.55L1334.99 40H1301.96Z" fill="#C3C5CB"/>
<path d="M1364.9 40L1389.46 0H1420.23L1395.67 40H1364.9Z" fill="#CACCD1"/>
<path d="M1428.13 40L1452.41 0H1480.92L1456.64 40H1428.13Z" fill="#D0D2D6"/>
<path d="M1491.08 40L1515.35 0H1541.6L1517.33 40H1491.08Z" fill="#D7D9DC"/>
<path d="M1554.02 40L1578.29 0H1602.28L1578.01 40H1554.02Z" fill="#DEDFE2"/>
<path d="M1616.97 40L1641.24 0H1662.97L1638.7 40H1616.97Z" fill="#E4E5E8"/>
<path d="M1679.91 40L1704.47 0H1723.94L1699.39 40H1679.91Z" fill="#EBECEE"/>
<path d="M1743.13 40L1767.41 0H1784.63L1760.07 40H1743.13Z" fill="#F2F2F3"/>
<path d="M1806.08 40L1830.35 0H1845.31L1821.04 40H1806.08Z" fill="#F8F9F9"/>
<path d="M1869.02 40L1893.3 0H1906L1881.72 40H1869.02Z" fill="white"/>
</svg>
