<svg width="1866" height="40" viewBox="0 0 1866 40" fill="none" xmlns="http://www.w3.org/2000/svg">
<path d="M-61 40L-36.6398 0H43.7801L19.4199 40H-61Z" fill="#633E20"/>
<path d="M2.00342 40L26.3637 0H104.525L80.1651 40H2.00342Z" fill="#684427"/>
<path d="M65.0073 40L89.3676 0H165.271L140.911 40H65.0073Z" fill="#6D4B2F"/>
<path d="M127.982 40L152.343 0H225.988L201.628 40H127.982Z" fill="#735136"/>
<path d="M190.986 40L215.347 0H286.734L262.373 40H190.986Z" fill="#78583E"/>
<path d="M253.989 40L278.35 0H347.478L323.118 40H253.989Z" fill="#7D5E45"/>
<path d="M316.993 40L341.353 0H408.224L383.864 40H316.993Z" fill="#82654D"/>
<path d="M379.997 40L404.357 0H468.969L444.609 40H379.997Z" fill="#876B54"/>
<path d="M442.972 40L467.332 0H529.715L505.355 40H442.972Z" fill="#8D715B"/>
<path d="M505.976 40L530.336 0H590.432L566.072 40H505.976Z" fill="#927863"/>
<path d="M568.979 40L593.339 0H651.177L626.816 40H568.979Z" fill="#977E6A"/>
<path d="M631.983 40L656.343 0H711.923L687.563 40H631.983Z" fill="#9C8572"/>
<path d="M694.986 40L719.346 0H772.668L748.307 40H694.986Z" fill="#A18B79"/>
<path d="M757.961 40L782.322 0H833.413L809.053 40H757.961Z" fill="#A79281"/>
<path d="M820.965 40L845.326 0H894.131L869.77 40H820.965Z" fill="#AC9888"/>
<path d="M883.969 40L908.329 0H954.876L930.516 40H883.969Z" fill="#B19F90"/>
<path d="M946.972 40L971.332 0H1015.62L991.261 40H946.972Z" fill="#B6A597"/>
<path d="M1009.98 40L1034.34 0H1076.37L1052.01 40H1009.98Z" fill="#BBAB9E"/>
<path d="M1072.95 40L1097.31 0H1137.11L1112.75 40H1072.95Z" fill="#C1B2A6"/>
<path d="M1135.96 40L1160.32 0H1197.86L1173.5 40H1135.96Z" fill="#C6B8AD"/>
<path d="M1198.96 40L1223.32 0H1258.57L1234.21 40H1198.96Z" fill="#CBBFB5"/>
<path d="M1261.96 40L1286.32 0H1319.32L1294.96 40H1261.96Z" fill="#D0C5BC"/>
<path d="M1324.97 40L1349.33 0H1380.07L1355.71 40H1324.97Z" fill="#D5CCC4"/>
<path d="M1387.94 40L1412.3 0H1440.81L1416.45 40H1387.94Z" fill="#DBD2CB"/>
<path d="M1450.94 40L1475.3 0H1501.56L1477.2 40H1450.94Z" fill="#E0D8D2"/>
<path d="M1513.95 40L1538.31 0H1562.3L1537.94 40H1513.95Z" fill="#E5DFDA"/>
<path d="M1576.95 40L1601.31 0H1623.02L1598.66 40H1576.95Z" fill="#EAE5E1"/>
<path d="M1639.95 40L1664.31 0H1683.76L1659.4 40H1639.95Z" fill="#EFECE9"/>
<path d="M1702.93 40L1727.29 0H1744.51L1720.15 40H1702.93Z" fill="#F5F2F0"/>
<path d="M1765.93 40L1790.29 0H1805.26L1780.89 40H1765.93Z" fill="#FAF9F8"/>
<path d="M1828.94 40L1853.3 0H1866L1841.64 40H1828.94Z" fill="white"/>
</svg>

