<svg width="1870" height="40" viewBox="0 0 1870 40" fill="none" xmlns="http://www.w3.org/2000/svg">
<path d="M-57 39.9999L-32.6398 -0.00012207H47.7801L23.4199 39.9999H-57Z" fill="#5BA5B0"/>
<path d="M6.00391 39.9999L30.3642 -0.00012207H108.526L84.1656 39.9999H6.00391Z" fill="#60A8B3"/>
<path d="M69.0068 39.9999L93.3671 -0.00012207H169.271L144.91 39.9999H69.0068Z" fill="#66ABB5"/>
<path d="M131.982 39.9999L156.343 -0.00012207H229.988L205.628 39.9999H131.982Z" fill="#6BAEB8"/>
<path d="M194.986 39.9999L219.346 -0.00012207H290.733L266.373 39.9999H194.986Z" fill="#71B1BB"/>
<path d="M257.99 39.9999L282.35 -0.00012207H351.479L327.119 39.9999H257.99Z" fill="#76B4BD"/>
<path d="M320.993 39.9999L345.353 -0.00012207H412.224L387.864 39.9999H320.993Z" fill="#7CB7C0"/>
<path d="M383.997 39.9999L408.357 -0.00012207H472.969L448.609 39.9999H383.997Z" fill="#81BAC2"/>
<path d="M446.972 39.9999L471.332 -0.00012207H533.715L509.355 39.9999H446.972Z" fill="#87BDC5"/>
<path d="M509.976 39.9999L534.336 -0.00012207H594.432L570.072 39.9999H509.976Z" fill="#8CC0C8"/>
<path d="M572.979 39.9999L597.339 -0.00012207H655.177L630.817 39.9999H572.979Z" fill="#92C3CA"/>
<path d="M635.983 39.9999L660.343 -0.00012207H715.923L691.562 39.9999H635.983Z" fill="#97C6CD"/>
<path d="M698.986 39.9999L723.347 -0.00012207H776.668L752.308 39.9999H698.986Z" fill="#9DC9D0"/>
<path d="M761.961 39.9999L786.321 -0.00012207H837.413L813.053 39.9999H761.961Z" fill="#A2CCD2"/>
<path d="M824.965 39.9999L849.325 -0.00012207H898.13L873.77 39.9999H824.965Z" fill="#A8CFD5"/>
<path d="M887.969 39.9999L912.329 -0.00012207H958.876L934.516 39.9999H887.969Z" fill="#ADD2D8"/>
<path d="M950.972 39.9999L975.333 -0.00012207H1019.62L995.261 39.9999H950.972Z" fill="#B2D5DA"/>
<path d="M1013.98 39.9999L1038.34 -0.00012207H1080.37L1056.01 39.9999H1013.98Z" fill="#B8D8DD"/>
<path d="M1076.95 39.9999L1101.31 -0.00012207H1141.11L1116.75 39.9999H1076.95Z" fill="#BDDBDF"/>
<path d="M1139.95 39.9999L1164.32 -0.00012207H1201.86L1177.5 39.9999H1139.95Z" fill="#C3DEE2"/>
<path d="M1202.96 39.9999L1227.32 -0.00012207H1262.57L1238.21 39.9999H1202.96Z" fill="#C8E1E5"/>
<path d="M1265.96 39.9999L1290.32 -0.00012207H1323.32L1298.96 39.9999H1265.96Z" fill="#CEE4E7"/>
<path d="M1328.97 39.9999L1353.33 -0.00012207H1384.07L1359.71 39.9999H1328.97Z" fill="#D3E7EA"/>
<path d="M1391.94 39.9999L1416.3 -0.00012207H1444.81L1420.45 39.9999H1391.94Z" fill="#D9EAED"/>
<path d="M1454.94 39.9999L1479.3 -0.00012207H1505.56L1481.2 39.9999H1454.94Z" fill="#DEEDEF"/>
<path d="M1517.95 39.9999L1542.31 -0.00012207H1566.3L1541.94 39.9999H1517.95Z" fill="#E4F0F2"/>
<path d="M1580.95 39.9999L1605.31 -0.00012207H1627.02L1602.66 39.9999H1580.95Z" fill="#E9F3F4"/>
<path d="M1643.96 39.9999L1668.32 -0.00012207H1687.76L1663.4 39.9999H1643.96Z" fill="#EFF6F7"/>
<path d="M1706.93 39.9999L1731.29 -0.00012207H1748.51L1724.15 39.9999H1706.93Z" fill="#F4F9FA"/>
<path d="M1769.93 39.9999L1794.29 -0.00012207H1809.25L1784.89 39.9999H1769.93Z" fill="#FAFCFC"/>
<path d="M1832.94 39.9999L1857.3 -0.00012207H1870L1845.64 39.9999H1832.94Z" fill="white"/>
</svg>
