<svg width="31" height="33" viewBox="0 0 31 33" fill="none" xmlns="http://www.w3.org/2000/svg">
<path fill-rule="evenodd" clip-rule="evenodd" d="M30.2337 30.3181L23.1188 23.2384C28.1041 18.22 28.256 10.1642 23.4635 4.96116C18.671 -0.241832 10.6334 -0.747142 5.22763 3.8147C-0.178179 8.37654 -1.03544 16.388 3.28265 21.9913C7.60074 27.5947 15.5631 28.803 21.3478 24.7329L28.6013 31.9898C29.0564 32.4141 29.7655 32.4016 30.2054 31.9615C30.6452 31.5214 30.6577 30.8119 30.2337 30.3566V30.3181ZM3.04482 13.994C3.04482 8.03749 7.87122 3.2088 13.8249 3.2088C19.7785 3.2088 24.6049 8.03749 24.6049 13.994C24.6049 19.9505 19.7785 24.7792 13.8249 24.7792C7.87122 24.7792 3.04482 19.9505 3.04482 13.994Z" fill="#C6C6C6"/>
</svg>
