<?xml version="1.0" encoding="UTF-8"?>
<svg id="Warstwa_1" data-name="Warstwa 1" xmlns="http://www.w3.org/2000/svg" viewBox="0 0 77.95 111.42">
  <defs>
    <style>
      .cls-1 {
        fill: #2f2f2f;
        stroke-width: 0px;
      }
    </style>
  </defs>
  <path class="cls-1" d="m54.16,4.05v19.45h17.6c-5.53-6.11-11.02-12.18-17.6-19.45Z"/>
  <path class="cls-1" d="m37.94,78.99h-1.17v9.06h1.21c1,0,1.76-.35,2.3-1.06.53-.71.8-1.76.8-3.16v-.62c0-1.39-.27-2.44-.8-3.15s-1.31-1.06-2.34-1.06Z"/>
  <path class="cls-1" d="m25.89,78.99h-2.32v4.16h2.28c.67,0,1.19-.17,1.54-.5.35-.34.53-.81.53-1.43,0-.67-.18-1.21-.54-1.61-.36-.4-.86-.61-1.48-.61Z"/>
  <path class="cls-1" d="m43.94,32.45V0H0v111.42h77.95V32.45h-34.01Zm-14.01,52.12c-1.01.84-2.39,1.26-4.14,1.26h-2.22v4.89h-3.48v-14.41h5.75c1.1,0,2.08.2,2.93.61.85.41,1.5.98,1.97,1.73s.7,1.6.7,2.55c0,1.41-.5,2.53-1.51,3.37Zm-4.14-19.82c.53-3.12,3.2-5.44,6.48-5.44h10.04c3.2,0,5.95,2.41,6.48,5.44h-1.33c-.53-2.32-2.58-4.1-5.06-4.1h-10.04c-2.49,0-4.62,1.78-5.06,4.1h-1.51Zm2.22,1.43c0-2.32,1.87-4.28,4.17-4.28s4.17,1.87,4.17,4.19-1.87,4.19-4.17,4.19-4.17-1.78-4.17-4.1Zm16.61,17.64c0,1.32-.28,2.5-.84,3.55-.56,1.05-1.34,1.87-2.36,2.46-1.01.59-2.14.89-3.39.9h-4.74v-14.41h4.64c1.27,0,2.42.29,3.44.87s1.81,1.39,2.38,2.45c.57,1.05.86,2.23.87,3.54v.66Zm-2.31-13.54c-2.31,0-4.17-1.87-4.17-4.19s1.87-4.19,4.17-4.19,4.17,1.87,4.17,4.19-1.87,4.19-4.17,4.19Zm13.73,8.71h-6.17v3.32h5.6v2.67h-5.6v5.74h-3.47v-14.41h9.64v2.68Zm14.6-16.38l-20.69,1.07c-.98-3.39-4.09-5.89-7.64-5.89h-10.04c-2.93.09-5.51,1.61-6.93,3.92h-4.44v3.3h-.98v-11.86h36.33v8.65h14.39v.8Z"/>
</svg>